<svg id="e9fpcf684awp1" xmlns="http://www.w3.org/2000/svg" xmlns:xlink="http://www.w3.org/1999/xlink" viewBox="0 0 248 160" shape-rendering="geometricPrecision" text-rendering="geometricPrecision"><style><![CDATA[#e9fpcf684awp4_tr {animation: e9fpcf684awp4_tr__tr 4000ms linear 1 normal forwards}@keyframes e9fpcf684awp4_tr__tr { 0% {transform: translate(184.200000px,19.400000px) rotate(180deg)} 37.500000% {transform: translate(184.200000px,19.400000px) rotate(180deg)} 100% {transform: translate(184.200000px,19.400000px) rotate(360deg)} }]]></style><path id="e9fpcf684awp2" d="M43.200000,158.400000L43.200000,106L42,106L42,158.400000L2.100000,158.400000L2.100000,1.400000L81.900000,1.400000L81.900000,158.400000ZM41.900000,73.400000L43.200000,73.400000L43.200000,37.600000L41.900000,37.600000Z" fill="none" stroke="rgb(167,169,172)" stroke-width="0.700000" stroke-miterlimit="10" stroke-dashoffset="652.600000" stroke-dasharray="652.600000"/><path id="e9fpcf684awp3" d="M0,0L39.800000,0L39.800000,157L0,157L0,0Z" transform="matrix(1 0 0 1 205.40000000000001 1.40000000000001)" fill="none" stroke="rgb(167,169,172)" stroke-width="0.500000" stroke-miterlimit="10" stroke-dashoffset="393.600000" stroke-dasharray="393.600000"/><g id="e9fpcf684awp4_tr" transform="translate(184.200000,19.400000) rotate(180)"><path id="e9fpcf684awp4" d="M0,0L39.800000,0L39.800000,36L0,36L0,0Z" transform="translate(-19.900000,-18)" fill="none" fill-opacity="0" stroke="rgb(167,169,172)" stroke-width="0.700000" stroke-miterlimit="10" stroke-dashoffset="151.600000" stroke-dasharray="151.600000"/></g><path id="e9fpcf684awp5" d="M0,0L39.800000,0L39.800000,119.900000L0,119.900000L0,0Z" transform="matrix(1 0 0 1 164.30000000000001 38.50000000000000)" fill="none" stroke="rgb(167,169,172)" stroke-width="0.700000" stroke-miterlimit="10" stroke-dashoffset="319.400000" stroke-dasharray="319.400000"/><path id="e9fpcf684awp6" d="M0,0L79.800000,0L79.800000,36L0,36L0,0Z" transform="matrix(1 0 0 1 83.20000000000000 1.40000000000000)" fill="none" stroke="rgb(167,169,172)" stroke-width="0.700000" stroke-miterlimit="10" stroke-dashoffset="231.600000" stroke-dasharray="231.600000"/><path id="e9fpcf684awp7" d="M123.100000,158.400000L123.100000,74.400000L121.900000,74.400000L121.900000,158.400000L83.200000,158.400000L83.200000,38.500000L163,38.500000L163,158.400000L123.100000,158.400000Z" fill="none" stroke="rgb(167,169,172)" stroke-width="0.700000" stroke-miterlimit="10" stroke-dashoffset="567.400000" stroke-dasharray="567.400000"/></svg>