<?xml version="1.0" encoding="utf-8"?>
<!-- Generator: Adobe Illustrator 22.0.1, SVG Export Plug-In . SVG Version: 6.00 Build 0)  -->
<svg version="1.1" id="Layer_1" xmlns="http://www.w3.org/2000/svg" xmlns:xlink="http://www.w3.org/1999/xlink" x="0px" y="0px"
	 viewBox="0 0 84 160" style="enable-background:new 0 0 84 160;" xml:space="preserve">
<style type="text/css">
	.st0{fill:#41479B;}
	.st1{fill:#FFFFFF;}
</style>
<path class="st0" d="M43.2,158.4V106H42v52.4H2.1V1.4h79.8v157H43.2z M41.9,73.4h1.3V37.6h-1.3V73.4z"/>
<path class="st1" d="M81.8,1.5v156.9H43.3v-52.2V106h-0.2H42h-0.2v0.2v52.2H2.2V1.5H81.8z M41.9,73.5L41.9,73.5h1.2h0.2v-0.2V37.7
	v-0.2h-0.2H42h-0.2v0.2v35.7v0.1 M82,1.3H2v157.2h40v-52.4h1.1v52.4H82V1.3z M42,37.7h1.1v35.7H42V37.7z"/>
</svg>
