<?xml version="1.0" encoding="utf-8"?>
<!-- Generator: Adobe Illustrator 22.0.1, SVG Export Plug-In . SVG Version: 6.00 Build 0)  -->
<svg version="1.1" id="Layer_1" xmlns="http://www.w3.org/2000/svg" xmlns:xlink="http://www.w3.org/1999/xlink" x="0px" y="0px"
	 viewBox="0 0 951.4 948" style="enable-background:new 0 0 951.4 948;" xml:space="preserve">
<style type="text/css">
	.st0{fill:none;stroke:#EA2529;stroke-miterlimit:10;}
</style>
<path class="st0" d="M619.2,627.7v149.8H416.5h-0.4v0.4v4.2v0.4h0.4h202.7v154.3H10.8V627.7H619.2z M151.1,782.7h0.4h138.2h0.4v-0.4
	V778v-0.4h-0.4H151.4h-0.4v0.4v4.3V782.7 M619.6,627.4H10.4v309.9h609.1V782.1h-203v-4.2h203V627.4z M151.4,778h138.2v4.3H151.4V778
	z"/>
<path class="st0" d="M939.5,937.8H785.3V329.4h154.2V937.8z M939.8,329H784.9v609.1h154.9V329z"/>
<path class="st0" d="M779.1,468H624.9V328.5h154.2V468z M779.4,328.1H624.5v140.3h154.9V328.1z"/>
<path class="st0" d="M779.1,936.9H624.9V472.4h154.2V936.9z M779.4,472H624.5v465.2h154.9V472z"/>
<path class="st0" d="M619.2,152.7H310.1V13.3h309.1V152.7z M619.6,12.9H309.7v140.3h309.9V12.9z"/>
<path class="st0" d="M619.2,157.2v464.4H464.9V296.3v-0.4h-0.4h-4.4h-0.4v0.4v325.3H310.1V157.2H619.2z M619.6,156.8H309.7V622
	h150.5V296.3h4.4V622h155.1V156.8z"/>
</svg>
