<?xml version="1.0" encoding="utf-8"?>
<!-- Generator: Adobe Illustrator 22.0.1, SVG Export Plug-In . SVG Version: 6.00 Build 0)  -->
<svg version="1.1" id="Layer_1" xmlns="http://www.w3.org/2000/svg" xmlns:xlink="http://www.w3.org/1999/xlink" x="0px" y="0px"
	 viewBox="0 0 248 160" style="enable-background:new 0 0 248 160;" xml:space="preserve">
<style type="text/css">
	.st0{fill:#41479B;}
	.st1{fill:#FFFFFF;}
</style>
<path class="st0" d="M43.2,158.4V106H42v52.4H2.1V1.4h79.8v157H43.2z M41.9,73.4h1.3V37.6h-1.3V73.4z"/>
<path class="st1" d="M81.8,1.5v156.9H43.3v-52.2v-0.2h-0.2H42h-0.2v0.2v52.2H2.2V1.5H81.8z M41.9,73.5L41.9,73.5h1.2h0.2v-0.2V37.7
	v-0.2h-0.2H42h-0.2v0.2v35.7v0.1 M82,1.3H2v157.2h40v-52.4h1.1v52.4H82V1.3z M42,37.7h1.1v35.7H42V37.7z"/>
<rect x="205.4" y="1.4" class="st0" width="39.8" height="157"/>
<path class="st1" d="M245.1,158.4h-39.7V1.5h39.7V158.4z M245.3,1.3h-40v157.2h40V1.3z"/>
<rect x="164.3" y="1.4" class="st0" width="39.8" height="36"/>
<path class="st1" d="M204,37.4h-39.7V1.5H204V37.4z M204.2,1.3h-40v36.2h40V1.3z"/>
<rect x="164.3" y="38.5" class="st0" width="39.8" height="119.9"/>
<path class="st1" d="M204,158.4h-39.7V38.6H204V158.4z M204.2,38.5h-40v120h40V38.5z"/>
<rect x="83.2" y="1.4" class="st0" width="79.8" height="36"/>
<path class="st1" d="M162.9,37.4H83.3V1.5H163v35.9H162.9z M163.1,1.3h-80v36.2h80V1.3z"/>
<polygon class="st0" points="123.1,158.4 123.1,74.4 121.9,74.4 121.9,158.4 83.2,158.4 83.2,38.5 163,38.5 163,158.4 "/>
<path class="st1" d="M162.9,38.6v119.7h-39.7V74.5v-0.2H123h-1.1h-0.2v0.2v83.9H83.3V38.6H162.9z M163.1,38.5h-80v120h38.8v-84h1.1
	v84h40v-120H163.1z"/>
</svg>
