<?xml version="1.0" encoding="utf-8"?>
<!-- Generator: Adobe Illustrator 22.0.1, SVG Export Plug-In . SVG Version: 6.00 Build 0)  -->
<svg version="1.1" id="Layer_1" xmlns="http://www.w3.org/2000/svg" xmlns:xlink="http://www.w3.org/1999/xlink" x="0px" y="0px"
	 viewBox="0 0 525.6 763.3" style="enable-background:new 0 0 525.6 763.3;" xml:space="preserve">
<style type="text/css">
	.st0{fill:#FFFFFF;}
</style>
<path class="st0" d="M516.7,8v120.7H346.8h-1v1v3.4v1h1h169.9v124.4H6.1V8H516.7z M122.7,134.3h1H240h1v-1v-3.5v-1h-1H123.7h-1v1
	v3.5V134.3 M517.7,7H5.1v252.6h512.6V133.1H346.8v-3.4h170.9V7z M123.7,129.8H240v3.5H123.7V129.8z"/>
<path class="st0" d="M516.8,757.1H392.5V262.7h124.3V757.1z M517.8,261.7H391.5v496.4h126.3V261.7z"/>
<path class="st0" d="M386.1,375H261.8V262.7h124.3V375z M387.1,261.7H260.8V376h126.3V261.7z"/>
<path class="st0" d="M386.1,757.1H261.8V380h124.3V757.1z M387.1,379H260.8v379.1h126.3V379z"/>
<path class="st0" d="M256.8,375H6.2V262.7h250.6V375z M257.8,261.7H5.2V376h252.6V261.7z"/>
<path class="st0" d="M256.8,380v377.1H132.4V492.7v-1h-1h-3.6h-1v1v264.4H6.2V380H256.8z M257.8,379H5.2v379.1h122.6V492.7h3.6
	v265.4h126.4V379z"/>
</svg>
