<?xml version="1.0" encoding="utf-8"?>
<!-- Generator: Adobe Illustrator 22.0.1, SVG Export Plug-In . SVG Version: 6.00 Build 0)  -->
<svg version="1.1" id="Layer_1" xmlns="http://www.w3.org/2000/svg" xmlns:xlink="http://www.w3.org/1999/xlink" x="0px" y="0px"
	 viewBox="0 0 1160 766.7" style="enable-background:new 0 0 1160 766.7;" xml:space="preserve">
<style type="text/css">
	.st0{fill:#FFFFFF;}
</style>
<path class="st0" d="M520,10.4v120.7H350.1h-1v1v3.4v1h1H520v124.4H9.4V10.4H520z M126,136.6h1h116.3h1v-1v-3.5v-1h-1H127h-1v1v3.5
	V136.6 M521,9.4H8.4v252.6H521V135.5H350.1v-3.4H521V9.4z M127,132.2h116.3v3.5H127V132.2z"/>
<path class="st0" d="M520.1,759.5H395.9V265h124.3V759.5z M521.1,264H394.9v496.4h126.3V264z"/>
<path class="st0" d="M389.4,377.3H265.1V265h124.3V377.3z M390.4,264H264.1v114.3h126.3V264z"/>
<path class="st0" d="M389.4,759.5H265.1V382.3h124.3V759.5z M390.4,381.3H264.1v379.1h126.3V381.3z"/>
<path class="st0" d="M260.1,377.3H9.6V265h250.6V377.3z M261.1,264H8.6v114.3h252.6V264z"/>
<path class="st0" d="M260.1,382.3v377.1H135.8V495v-1h-1h-3.6h-1v1v264.4H9.6V382.3H260.1z M261.1,381.3H8.6v379.1h122.6V495h3.6
	v265.4h126.4V381.3z"/>
<path class="st0" d="M775.2,10.6V504H654.7V339.9v-1h-1h-3.4h-1v1V504H525.1V10.6H775.2z M649.2,237.6h1h3.5h1v-1V124.2v-1h-1h-3.5
	h-1v1v112.4V237.6 M776.2,9.6H524.1V505h126.2V339.9h3.4V505h122.5V9.6z M650.2,124.2h3.5v112.4h-3.5V124.2z"/>
<path class="st0" d="M1147.4,758.9h-124V265.4h124V758.9z M1148.4,264.4h-126v495.5h126V264.4z"/>
<path class="st0" d="M1018.6,122.6h-124V10.6h124V122.6z M1019.6,9.6h-126v114.1h126V9.6z"/>
<path class="st0" d="M1018.6,504h-124V127.6h124V504z M1019.6,126.6h-126V505h126V126.6z"/>
<path class="st0" d="M649.1,759.5h-124V509.4h124V759.5z M650.1,508.4h-126v252.1h126V508.4z"/>
<path class="st0" d="M1018.6,509.4v124.1H754.7h-1v1v3.5v1h1h263.9v120.4H654.1V509.4H1018.6z M1019.6,508.4H653.1v252.1h366.5
	V638.1H754.7v-3.5h264.9V508.4z"/>
</svg>
