<?xml version="1.0" encoding="utf-8"?>
<!-- Generator: Adobe Illustrator 22.0.1, SVG Export Plug-In . SVG Version: 6.00 Build 0)  -->
<svg version="1.1" id="Layer_1" xmlns="http://www.w3.org/2000/svg" xmlns:xlink="http://www.w3.org/1999/xlink" x="0px" y="0px"
	 viewBox="0 0 1925.6 772" style="enable-background:new 0 0 1925.6 772;" xml:space="preserve">
<style type="text/css">
	.st0{fill:#FFFFFF;}
</style>
<path class="st0" d="M1650.3,509.7v120.6h-164.2h-1v1v3.4v1h1h164.2v124.2h-493.7V509.7H1650.3z M1269.3,635.8h1h112.5h1v-1v-3.5v-1
	h-1h-112.5h-1v1v3.5V635.8 M1651.3,508.7h-495.7v252.2h495.7V634.7h-165.2v-3.4h165.2V508.7z M1270.3,631.3h112.5v3.5h-112.5V631.3z
	"/>
<path class="st0" d="M1911,760.6h-124.1V266.9H1911V760.6z M1912,265.9h-126.1v495.7H1912V265.9z"/>
<path class="st0" d="M1780.4,378.3h-124.1V266.2h124.1V378.3z M1781.4,265.2h-126.1v114.1h126.1V265.2z"/>
<path class="st0" d="M1780.4,759.9h-124.1V383.3h124.1V759.9z M1781.4,382.3h-126.1v378.6h126.1V382.3z"/>
<path class="st0" d="M1650.3,121.8h-250.2V9.6h250.2V121.8z M1651.3,8.6h-252.2v114.1h252.2V8.6z"/>
<path class="st0" d="M1650.3,126.7v376.6h-124.2V239.3v-1h-1h-3.6h-1v1v264.1h-120.5V126.7H1650.3z M1651.3,125.7h-252.2v378.6
	h122.5V239.3h3.6v265.1h126.2V125.7z"/>
<path class="st0" d="M521.8,11.2V132H351.9h-1v1v3.4v1h1h169.9v124.4H11.2V11.2H521.8z M127.8,137.5h1h116.3h1v-1V133v-1h-1H128.8
	h-1v1v3.5V137.5 M522.8,10.2H10.2v252.6h512.6V136.4H351.9V133h170.9V10.2z M128.8,133h116.3v3.5H128.8V133z"/>
<path class="st0" d="M521.9,760.3H397.6V265.9h124.3V760.3z M522.9,264.9H396.6v496.4h126.3V264.9z"/>
<path class="st0" d="M391.2,378.2H266.9V265.9h124.3V378.2z M392.2,264.9H265.9v114.3h126.3V264.9z"/>
<path class="st0" d="M391.2,760.3H266.9V383.2h124.3V760.3z M392.2,382.2H265.9v379.1h126.3V382.2z"/>
<path class="st0" d="M261.9,378.2H11.3V265.9h250.6V378.2z M262.9,264.9H10.3v114.3h252.6V264.9z"/>
<path class="st0" d="M261.9,383.2v377.1H137.5V495.9v-1h-1H133h-1v1v264.4H11.3V383.2H261.9z M262.9,382.2H10.3v379.1H133V495.9h3.6
	v265.4h126.4V382.2z"/>
<path class="st0" d="M777,11.4v493.5H656.5V340.8v-1h-1H652h-1v1v164.2H526.9V11.4H777z M650.9,238.5h1h3.5h1v-1V125.1v-1h-1h-3.5
	h-1v1v112.4V238.5 M778,10.4H525.9v495.5H652V340.8h3.4v165.2H778V10.4z M651.9,125.1h3.5v112.4h-3.5V125.1z"/>
<path class="st0" d="M1149.2,759.8h-124V266.3h124V759.8z M1150.2,265.3h-126v495.5h126V265.3z"/>
<path class="st0" d="M1020.4,123.5h-124V11.4h124V123.5z M1021.4,10.4h-126v114.1h126V10.4z"/>
<path class="st0" d="M1020.4,504.9h-124V128.5h124V504.9z M1021.4,127.5h-126v378.4h126V127.5z"/>
<path class="st0" d="M650.9,760.4h-124V510.3h124V760.4z M651.9,509.3h-126v252.1h126V509.3z"/>
<path class="st0" d="M1020.4,510.3v124.1H756.4h-1v1v3.5v1h1h263.9v120.4H655.9V510.3H1020.4z M1021.4,509.3H654.9v252.1h366.5V639
	H756.4v-3.5h264.9V509.3z"/>
</svg>
